<?xml version="1.0" encoding="UTF-8"?>
<svg width="1111px" height="900px" viewBox="0 0 1111 900" version="1.1" xmlns="http://www.w3.org/2000/svg" xmlns:xlink="http://www.w3.org/1999/xlink">
    <title>Group 7</title>
    <defs>
        <linearGradient x1="40.0933717%" y1="16.8651596%" x2="55.9503861%" y2="82.0339788%" id="linearGradient-1">
            <stop stop-color="#82F3FC" offset="0%"></stop>
            <stop stop-color="#55DBFD" offset="24.6050037%"></stop>
            <stop stop-color="#1AB0FE" offset="47.3536957%"></stop>
            <stop stop-color="#006EFE" offset="82.8355386%"></stop>
            <stop stop-color="#025EFE" offset="100%"></stop>
        </linearGradient>
        <linearGradient x1="54.7352314%" y1="17.9660212%" x2="44.2355796%" y2="82.0339788%" id="linearGradient-2">
            <stop stop-color="#81F1FC" stop-opacity="0.3046875" offset="0%"></stop>
            <stop stop-color="#01A7FE" stop-opacity="0.298432037" offset="100%"></stop>
        </linearGradient>
        <linearGradient x1="48.6830409%" y1="-6.5205131%" x2="47.4533758%" y2="71.9817274%" id="linearGradient-3">
            <stop stop-color="#FFFFFF" stop-opacity="0.742487981" offset="0%"></stop>
            <stop stop-color="#FFFFFF" stop-opacity="0" offset="100%"></stop>
        </linearGradient>
        <linearGradient x1="51.3361147%" y1="17.4007621%" x2="38.9970793%" y2="83.5292842%" id="linearGradient-4">
            <stop stop-color="#FFFFFF" stop-opacity="0.308703016" offset="0%"></stop>
            <stop stop-color="#FFFFFF" stop-opacity="0" offset="100%"></stop>
        </linearGradient>
        <radialGradient cx="40%" cy="25%" fx="40%" fy="25%" r="72%" gradientTransform="translate(0.400000,0.250000),scale(1.000000,0.524691),translate(-0.400000,-0.250000)" id="radialGradient-5">
            <stop stop-color="#FFFFFF" offset="0%"></stop>
            <stop stop-color="#FFFFFF" offset="65%"></stop>
            <stop stop-color="#ECF7FF" offset="100%"></stop>
        </radialGradient>
        <linearGradient x1="-7.70797037%" y1="52.2746897%" x2="9.24700287%" y2="49.2784439%" id="linearGradient-6">
            <stop stop-color="#FFFFFF" offset="0%"></stop>
            <stop stop-color="#FFFFFF" stop-opacity="0" offset="100%"></stop>
        </linearGradient>
        <linearGradient x1="27.1926023%" y1="53.6958854%" x2="28.4815018%" y2="51.0489405%" id="linearGradient-7">
            <stop stop-color="#FFFFFF" offset="0%"></stop>
            <stop stop-color="#FFFFFF" stop-opacity="0" offset="100%"></stop>
        </linearGradient>
        <linearGradient x1="90.4789935%" y1="53.1638567%" x2="82.2921878%" y2="50.6299849%" id="linearGradient-8">
            <stop stop-color="#FFFFFF" stop-opacity="0.414335664" offset="0%"></stop>
            <stop stop-color="#FFFFFF" stop-opacity="0" offset="100%"></stop>
        </linearGradient>
        <linearGradient x1="111.899863%" y1="50.4568374%" x2="93.2075265%" y2="48.8481941%" id="linearGradient-9">
            <stop stop-color="#FFFFFF" stop-opacity="0.707741477" offset="0%"></stop>
            <stop stop-color="#FFFFFF" stop-opacity="0" offset="100%"></stop>
        </linearGradient>
        <linearGradient x1="79.1746164%" y1="52.7812994%" x2="78.5157084%" y2="51.0268293%" id="linearGradient-10">
            <stop stop-color="#FFFFFF" stop-opacity="0.627239948" offset="0%"></stop>
            <stop stop-color="#FFFFFF" stop-opacity="0" offset="100%"></stop>
        </linearGradient>
        <linearGradient x1="78.5654446%" y1="56.8297081%" x2="77.4095795%" y2="51.9575611%" id="linearGradient-11">
            <stop stop-color="#FFFFFF" stop-opacity="0.339133523" offset="0%"></stop>
            <stop stop-color="#FFFFFF" stop-opacity="0" offset="100%"></stop>
        </linearGradient>
        <linearGradient x1="29.7022923%" y1="52.6937084%" x2="30.6487679%" y2="50.854852%" id="linearGradient-12">
            <stop stop-color="#FFFFFF" stop-opacity="0.0119372815" offset="0%"></stop>
            <stop stop-color="#FFFFFF" stop-opacity="0" offset="100%"></stop>
        </linearGradient>
        <radialGradient cx="48.0618628%" cy="99.6896805%" fx="48.0618628%" fy="99.6896805%" r="36.3354157%" gradientTransform="translate(0.480619,0.996897),scale(0.176460,1.000000),rotate(-90.000000),scale(1.000000,2.682172),translate(-0.480619,-0.996897)" id="radialGradient-13">
            <stop stop-color="#FFFFFF" stop-opacity="0.211593094" offset="0%"></stop>
            <stop stop-color="#FFFFFF" stop-opacity="0" offset="100%"></stop>
        </radialGradient>
    </defs>
    <g id="Page-1" stroke="none" stroke-width="1" fill="none" fill-rule="evenodd">
        <g id="Group-7" transform="translate(15.101636, 0.088960)" fill-rule="nonzero">
            <path d="M0.200902065,736.931364 C3.16619069,682.205355 46.8391912,658.266731 48.2955654,611.345367 C54.5862667,408.671988 76.3639986,262.984709 271.453319,106.90726 C392.760998,9.85739077 631.197026,-22.8859983 796.898364,95.236089 C917.097787,180.921618 1026.49689,339.254114 1023.87456,531.285612 C1021.70811,689.933502 1112.64355,689.933502 1067.85286,791.38402 C1033.45676,869.290888 908.590526,841.282219 832.498449,869.5949 C725.062562,909.570126 589.172199,853.055147 479.241505,869.5949 C247.953733,904.393574 283.735136,855.21484 159.735136,853.21484 C72.735136,851.21484 -4.46199352,822.987629 0.200902065,736.931364 Z" id="Path" stroke="url(#linearGradient-2)" stroke-width="30" fill="url(#linearGradient-1)"></path>
            <path d="M511.358909,771.520078 C722.671859,813.925736 946.647736,724.151998 946.271401,470.874293 C945.885462,217.596588 758.025401,48.2197633 552.575474,48.2197633 C347.125547,48.2197633 158.120877,176.419034 114.355761,424.54085 C73.1031257,658.418417 339.756575,737.083429 511.358909,771.520078 Z" id="Oval" fill="url(#linearGradient-3)" transform="translate(528.176038, 414.908752) rotate(-7.000000) translate(-528.176038, -414.908752) "></path>
            <path d="M511.358909,771.520078 C722.671859,813.925736 946.647736,724.151998 946.271401,470.874293 C945.885462,217.596588 758.025401,48.2197633 552.575474,48.2197633 C347.125547,48.2197633 158.120877,176.419034 114.355761,424.54085 C73.1031257,658.418417 339.756575,737.083429 511.358909,771.520078 Z" id="Oval" fill="url(#linearGradient-4)" transform="translate(528.176038, 414.908752) rotate(-7.000000) translate(-528.176038, -414.908752) "></path>
            <path d="M372.082825,181.168021 C438.116605,173.819448 471.061101,185.057405 483.147615,157.332788 C495.234129,129.608172 429.019541,106.551416 369.607453,107.45186 C310.195365,108.352304 250.996382,128.791785 254.181973,159.206012 C257.367563,189.620238 306.049044,188.516595 372.082825,181.168021 Z" id="Oval" fill-opacity="0.800180288" fill="#FFFFFF" opacity="0.93" transform="translate(369.323799, 146.466242) rotate(-29.000000) translate(-369.323799, -146.466242) "></path>
            <path d="M233.978869,296.863391 C256.622544,296.863391 278.719353,284.137236 276.235331,268.79653 C273.75131,253.455825 251.109384,246.584494 228.465709,246.584494 C205.822035,246.584494 183.827708,260.191434 185.654361,276.039555 C187.481014,291.887676 211.335195,296.863391 233.978869,296.863391 Z" id="Oval" fill-opacity="0.800180288" fill="#FFFFFF" opacity="0.84" transform="translate(230.987391, 271.723942) rotate(-54.000000) translate(-230.987391, -271.723942) "></path>
            <rect id="Rectangle" fill="url(#radialGradient-5)" x="626.898364" y="296.91104" width="170" height="324" rx="85"></rect>
            <rect id="Rectangle" fill="url(#radialGradient-5)" x="279.898364" y="296.91104" width="170" height="324" rx="85"></rect>
            <rect id="Rectangle" fill="#0D1B4D" x="325.484954" y="390.668771" width="85" height="157" rx="27"></rect>
            <rect id="Rectangle" fill="#FFFFFF" x="337.484954" y="404.668771" width="27" height="28" rx="6"></rect>
            <rect id="Rectangle" fill="#0D1B4D" x="672.484954" y="390.668771" width="85" height="157" rx="27"></rect>
            <rect id="Rectangle" fill="#FFFFFF" x="684.484954" y="404.668771" width="27" height="28" rx="6"></rect>
            <path d="M65.1459384,691.018082 C81.6201919,664.447274 97.2088269,653.4935 164.976587,729.12036 C278.034259,855.289451 413.337061,796.932589 509.368261,799.440745 C632.212977,802.64922 775.404741,842.126087 887.157403,768.630225 C919.756884,747.190674 950.503037,663.000096 972.001377,664.478472 C1001.26944,666.49115 1029.80547,721.012414 1016.77583,744.527476 C995.382148,783.137437 937.535678,758.841441 851.368968,813.767384 C769.18551,866.154251 594.377639,804.546948 491.658777,817.5949 C258.835058,847.169532 303.199557,839.608351 170.207899,785.452231 C136.856345,771.870998 12.0971173,776.578868 65.1459384,691.018082 Z" id="Path" fill="url(#linearGradient-6)"></path>
            <path d="M65.1459384,691.018082 C81.6201919,664.447274 97.2088269,653.4935 164.976587,729.12036 C278.034259,855.289451 413.337061,796.932589 509.368261,799.440745 C632.212977,802.64922 775.404741,842.126087 887.157403,768.630225 C919.756884,747.190674 950.503037,663.000096 972.001377,664.478472 C1001.26944,666.49115 1029.80547,721.012414 1016.77583,744.527476 C995.382148,783.137437 937.535678,758.841441 851.368968,813.767384 C769.18551,866.154251 594.377639,804.546948 491.658777,817.5949 C258.835058,847.169532 303.199557,839.608351 170.207899,785.452231 C136.856345,771.870998 12.0971173,776.578868 65.1459384,691.018082 Z" id="Path" fill="url(#linearGradient-7)"></path>
            <path d="M65.1459384,691.018082 C81.6201919,664.447274 97.2088269,653.4935 164.976587,729.12036 C278.034259,855.289451 413.337061,796.932589 509.368261,799.440745 C632.212977,802.64922 775.404741,842.126087 887.157403,768.630225 C919.756884,747.190674 950.503037,663.000096 972.001377,664.478472 C1001.26944,666.49115 1029.80547,721.012414 1016.77583,744.527476 C995.382148,783.137437 937.535678,758.841441 851.368968,813.767384 C769.18551,866.154251 594.377639,804.546948 491.658777,817.5949 C258.835058,847.169532 303.199557,839.608351 170.207899,785.452231 C136.856345,771.870998 12.0971173,776.578868 65.1459384,691.018082 Z" id="Path" fill="url(#linearGradient-8)"></path>
            <path d="M65.1459384,691.018082 C81.6201919,664.447274 97.2088269,653.4935 164.976587,729.12036 C278.034259,855.289451 413.337061,796.932589 509.368261,799.440745 C632.212977,802.64922 775.404741,842.126087 887.157403,768.630225 C919.756884,747.190674 950.503037,663.000096 972.001377,664.478472 C1001.26944,666.49115 1029.80547,721.012414 1016.77583,744.527476 C995.382148,783.137437 937.535678,758.841441 851.368968,813.767384 C769.18551,866.154251 594.377639,804.546948 491.658777,817.5949 C258.835058,847.169532 303.199557,839.608351 170.207899,785.452231 C136.856345,771.870998 12.0971173,776.578868 65.1459384,691.018082 Z" id="Path" fill="url(#linearGradient-9)"></path>
            <path d="M65.1459384,691.018082 C81.6201919,664.447274 97.2088269,653.4935 164.976587,729.12036 C278.034259,855.289451 413.337061,796.932589 509.368261,799.440745 C632.212977,802.64922 775.404741,842.126087 887.157403,768.630225 C919.756884,747.190674 950.503037,663.000096 972.001377,664.478472 C1001.26944,666.49115 1029.80547,721.012414 1016.77583,744.527476 C995.382148,783.137437 937.535678,758.841441 851.368968,813.767384 C769.18551,866.154251 594.377639,804.546948 491.658777,817.5949 C258.835058,847.169532 303.199557,839.608351 170.207899,785.452231 C136.856345,771.870998 12.0971173,776.578868 65.1459384,691.018082 Z" id="Path" fill="url(#linearGradient-10)"></path>
            <path d="M509.368261,799.440745 C632.212977,802.64922 775.404741,842.126087 887.157403,768.630225 C919.756884,747.190674 950.503037,663.000096 972.001377,664.478472 C1001.26944,666.49115 1029.80547,721.012414 1016.77583,744.527476 C995.382148,783.137437 937.535678,758.841441 851.368968,813.767384 C769.18551,866.154251 594.377639,804.546948 491.658777,817.5949 C258.835058,847.169532 413.337061,796.932589 509.368261,799.440745 Z" id="Path" fill="url(#linearGradient-11)"></path>
            <path d="M164.976587,729.12036 C278.034259,855.289451 413.337061,796.932589 509.368261,799.440745 C632.212977,802.64922 775.404741,842.126087 887.157403,768.630225 C919.756884,747.190674 937.535678,758.841441 851.368968,813.767384 C769.18551,866.154251 594.377639,804.546948 491.658777,817.5949 C258.835058,847.169532 303.199557,839.608351 170.207899,785.452231 C136.856345,771.870998 97.2088269,653.4935 164.976587,729.12036 Z" id="Path" fill="url(#linearGradient-12)"></path>
            <path d="M65.1459384,691.018082 C81.6201919,664.447274 97.2088269,653.4935 164.976587,729.12036 C278.034259,855.289451 413.337061,796.932589 509.368261,799.440745 C632.212977,802.64922 775.404741,842.126087 887.157403,768.630225 C919.756884,747.190674 950.503037,663.000096 972.001377,664.478472 C1001.26944,666.49115 1029.80547,721.012414 1016.77583,744.527476 C995.382148,783.137437 937.535678,758.841441 851.368968,813.767384 C769.18551,866.154251 594.377639,804.546948 491.658777,817.5949 C258.835058,847.169532 303.199557,839.608351 170.207899,785.452231 C136.856345,771.870998 12.0971173,776.578868 65.1459384,691.018082 Z" id="Path" fill="url(#radialGradient-13)"></path>
            <path d="M98.5372815,739.590626 C113.220888,728.922361 121.05188,711.329879 116.15816,704.594251 C111.26444,697.858623 103.182308,697.891015 80.8121644,700.582711 C62.4298111,702.794575 56.6449666,721.933256 58.8954454,730.656376 C62.8218612,745.875624 83.8536746,750.258891 98.5372815,739.590626 Z" id="Oval" fill-opacity="0.195858829" fill="#FFFFFF" opacity="0.84" transform="translate(88.024529, 722.177744) rotate(-54.000000) translate(-88.024529, -722.177744) "></path>
        </g>
    </g>
</svg>