<?xml version="1.0" encoding="UTF-8"?>
<svg width="448px" height="448px" viewBox="0 0 448 448" version="1.1" xmlns="http://www.w3.org/2000/svg" xmlns:xlink="http://www.w3.org/1999/xlink">
    <title>Group 5</title>
    <g id="Page-1" stroke="none" stroke-width="1" fill="none" fill-rule="evenodd">
        <g id="Group-5" fill-rule="nonzero">
            <path d="M115.374834,0 L332.625166,7.25467311e-15 C372.743509,-4.215174e-15 387.29139,4.1771525 401.958057,12.0209717 C416.624723,19.8647908 428.135209,31.3752767 435.979028,46.0419433 C443.822847,60.70861 448,75.2564907 448,115.374834 L448,332.625166 C448,372.743509 443.822847,387.29139 435.979028,401.958057 C428.135209,416.624723 416.624723,428.135209 401.958057,435.979028 C387.29139,443.822847 372.743509,448 332.625166,448 L115.374834,448 C75.2564907,448 60.70861,443.822847 46.0419433,435.979028 C31.3752767,428.135209 19.8647908,416.624723 12.0209717,401.958057 C4.1771525,387.29139 0,372.743509 0,332.625166 L0,115.374834 C0,75.2564907 4.1771525,60.70861 12.0209717,46.0419433 C19.8647908,31.3752767 31.3752767,19.8647908 46.0419433,12.0209717 C60.70861,4.1771525 75.2564907,0 115.374834,0 Z" id="Rectangle" fill="#1A1040"></path>
            <path d="M257.303509,78.3010358 L308.977415,131.168977 L308.977415,360.301036 C308.977415,365.823883 304.500263,370.301036 298.977415,370.301036 L108.977415,370.301036 C103.454568,370.302373 98.9774154,365.825221 98.9774154,360.302373 C98.9774154,360.301927 98.9774154,360.301481 98.9787528,360.301036 L99.0151296,88.3010357 C99.0172056,82.7787107 103.494142,78.3023733 109.016467,78.3010358 L257.303509,78.3010358 L257.303509,78.3010358 Z" id="Path" fill="#B8C4D6" transform="translate(203.977415, 224.301036) rotate(-18.000000) translate(-203.977415, -224.301036) "></path>
            <path d="M286.963343,63.0178364 L342.082177,120.955306 L342.082177,371.017836 C342.082177,377.645253 336.709594,383.017836 330.082177,383.017836 L130.082177,383.017836 C123.45476,383.019398 118.082177,377.646815 118.082177,371.019398 C118.082177,371.018878 118.082177,371.018357 118.083739,371.017836 L118.12227,75.0178363 C118.124695,68.3910296 123.497025,63.0193985 130.123832,63.0178364 L286.963343,63.0178364 L286.963343,63.0178364 Z" id="Path" fill="#D7DEEA" transform="translate(230.082177, 223.017836) rotate(-10.000000) translate(-230.082177, -223.017836) "></path>
            <path d="M322.92266,49 L389,115 L389,387 C389,393.627417 383.627417,399 377,399 L157,399 C150.372583,399.001556 145,393.628973 145,387.001556 C145,387.001037 145,387.000518 145.001556,387 L145.043819,60.9999999 C145.046233,54.3731907 150.418565,49.0015558 157.045374,49 L322.92266,49 L322.92266,49 Z" id="Path" fill="#FFFFFF"></path>
            <path d="M389,371 L389,387 C389,393.627417 383.627417,399 377,399 L157.019462,399 C150.392045,399 145.019462,393.627417 145.019462,387 C145.019462,386.993518 145.019467,386.987036 145.019478,386.980554 L145.045374,371 L145.045374,371 L389,371 Z" id="Path" fill="#06B6D4"></path>
            <path d="M323,49 L389,115 L335,115 C328.372583,115 323,109.627417 323,103 L323,49 L323,49 Z" id="Path" fill="#B8C4D6" opacity="0.9"></path>
            <g id=".MD" transform="translate(184.300524, 241.545455)" fill="#0E7490">
                <path d="M8.31007148,66.381392 C6.00893512,66.381392 4.04338114,65.571733 2.41340955,63.9524148 C0.783437958,62.3330966 -0.0208944282,60.3728693 0.000412390029,58.071733 C-0.0208944282,55.8132102 0.783437958,53.8796165 2.41340955,52.2709517 C4.04338114,50.6622869 6.00893512,49.8579545 8.31007148,49.8579545 C10.4833669,49.8579545 12.4063073,50.6622869 14.0788925,52.2709517 C15.7514777,53.8796165 16.5984238,55.8132102 16.6197306,58.071733 C16.5984238,59.6058239 16.1989209,61.0014205 15.421222,62.2585227 C14.6435232,63.515625 13.6314493,64.5170455 12.3850005,65.2627841 C11.1385516,66.0085227 9.78024194,66.381392 8.31007148,66.381392 Z" id="Path"></path>
                <polygon id="Path" points="26.9748442 0 46.5664635 0 63.1857817 40.5255682 63.9528272 40.5255682 80.5721453 0 100.163765 0 100.163765 65.4545455 84.7589351 65.4545455 84.7589351 25.2485795 84.2156113 25.2485795 68.4911794 65.0390625 58.6474294 65.0390625 42.9229976 25.024858 42.3796738 25.024858 42.3796738 65.4545455 26.9748442 65.4545455"></polygon>
                <path d="M134.265327,65.4545455 L110.071435,65.4545455 L110.071435,0 L134.233367,0 C140.902401,0 146.649915,1.30504261 151.47591,3.91512784 C156.301904,6.52521307 160.02527,10.2752131 162.646009,15.1651278 C165.266748,20.0550426 166.577117,25.8984375 166.577117,32.6953125 C166.577117,39.5134943 165.272074,45.3728693 162.661989,50.2734375 C160.051904,55.1740057 156.328537,58.9293324 151.49189,61.5394176 C146.655242,64.1495028 140.913054,65.4545455 134.265327,65.4545455 Z M125.891748,51.9673295 L133.658083,51.9673295 C137.322856,51.9673295 140.428324,51.3441051 142.974489,50.0976562 C145.520654,48.8512074 147.448921,46.8164063 148.75929,43.9932528 C150.06966,41.1700994 150.724844,37.4041193 150.724844,32.6953125 C150.724844,27.9865057 150.064333,24.231179 148.74331,21.4293324 C147.422287,18.6274858 145.47804,16.6033381 142.910569,15.3568892 C140.343097,14.1104403 137.184361,13.4872159 133.434361,13.4872159 L125.891748,13.4872159 L125.891748,51.9673295 Z" id="Shape"></path>
            </g>
            <path d="M191.691656,163 C189.017099,163 188.047241,162.721523 187.069463,162.198602 C186.091685,161.675681 185.324319,160.908315 184.801398,159.930537 C184.278477,158.952759 184,157.982901 184,155.308344 L184,122.691656 C184,120.017099 184.278477,119.047241 184.801398,118.069463 C185.324319,117.091685 186.091685,116.324319 187.069463,115.801398 C188.047241,115.278477 189.017099,115 191.691656,115 L251.308344,115 C253.982901,115 254.952759,115.278477 255.930537,115.801398 C256.908315,116.324319 257.675681,117.091685 258.198602,118.069463 C258.721523,119.047241 259,120.017099 259,122.691656 L259,155.308344 C259,157.982901 258.721523,158.952759 258.198602,159.930537 C257.675681,160.908315 256.908315,161.675681 255.930537,162.198602 C254.952759,162.721523 253.982901,163 251.308344,163 L204,163 L193.8,176.6 C193.468629,177.041828 192.841828,177.131371 192.4,176.8 C192.148194,176.611146 192,176.314757 192,176 L192,163 L191.691656,163 Z" id="Combined-Shape" fill="#06B6D4"></path>
        </g>
    </g>
</svg>