<svg width="448" height="448" viewBox="0 0 448 448" version="1.1" xmlns="http&#58;//www.w3.org/2000/svg">
    <title>Group</title>
    <g id="Page-1" stroke="none" stroke-width="1" fill="none" fill-rule="evenodd">
        <g id="Group">
            <path d="M115.374834,0 L332.625166,7.25467311e-15 C372.743509,-4.215174e-15 387.29139,4.1771525 401.958057,12.0209717 C416.624723,19.8647908 428.135209,31.3752767 435.979028,46.0419433 C443.822847,60.70861 448,75.2564907 448,115.374834 L448,332.625166 C448,372.743509 443.822847,387.29139 435.979028,401.958057 C428.135209,416.624723 416.624723,428.135209 401.958057,435.979028 C387.29139,443.822847 372.743509,448 332.625166,448 L115.374834,448 C75.2564907,448 60.70861,443.822847 46.0419433,435.979028 C31.3752767,428.135209 19.8647908,416.624723 12.0209717,401.958057 C4.1771525,387.29139 0,372.743509 0,332.625166 L0,115.374834 C0,75.2564907 4.1771525,60.70861 12.0209717,46.0419433 C19.8647908,31.3752767 31.3752767,19.8647908 46.0419433,12.0209717 C60.70861,4.1771525 75.2564907,0 115.374834,0 Z" id="Rectangle" fill="#161B27" fill-rule="nonzero"></path>
            <path d="M72.8649827,67 L215.587279,67 C224.502466,67 227.735328,67.9282561 230.994588,69.671327 C234.253847,71.414398 236.811733,73.9722837 238.554804,77.231543 C240.297875,80.4908022 241.226131,83.7236646 241.226131,92.638852 L241.226131,183.361148 C241.226131,192.276335 240.297875,195.509198 238.554804,198.768457 C236.811733,202.027716 234.253847,204.585602 230.994588,206.328673 C227.735328,208.071744 224.502466,209 215.587279,209 L72.8649827,209 C63.9497953,209 60.7169329,208.071744 57.4576736,206.328673 C54.1984144,204.585602 51.6405286,202.027716 49.8974577,198.768457 C48.1543868,195.509198 47.2261307,192.276335 47.2261307,183.361148 L47.2261307,92.638852 C47.2261307,83.7236646 48.1543868,80.4908022 49.8974577,77.231543 C51.6405286,73.9722837 54.1984144,71.414398 57.4576736,69.671327 C60.7169329,67.9282561 63.9497953,67 72.8649827,67 Z" id="Rectangle" fill="#FFFFFF" fill-rule="nonzero"></path>
            <path d="M78.7336683,243.986405 L78.7336683,208.261307 L78.7336683,208.261307 L113.733668,208.261307 L85.9656985,246.343094 C84.6641353,248.128095 82.1619807,248.519998 80.3769797,247.218435 C79.344345,246.465473 78.7336683,245.264406 78.7336683,243.986405 Z" id="Path-2" fill="#FFFFFF"></path>
            <rect id="Rectangle" fill="#10B981" fill-rule="nonzero" x="62.9845343" y="92.8378787" width="156.582915" height="18" rx="9"></rect>
            <rect id="Rectangle" fill="#10B981" fill-rule="nonzero" x="62.9845343" y="128.837879" width="156.582915" height="18" rx="9"></rect>
            <rect id="Rectangle" fill="#10B981" fill-rule="nonzero" x="62.9845343" y="164.837879" width="95.4773869" height="18" rx="9"></rect>
            <path d="M323.722133,228 L369.974895,267.188192 L369.952882,388 C369.947225,399.044271 360.99351,407.996355 349.949238,408 L251.974895,408 C240.9292,408.002851 231.974895,399.048546 231.974895,388.002851 C231.974895,388.0019 231.974895,388.00095 231.977746,388 L232.000553,228 L232.000553,228 L323.722133,228 Z" id="Path" fill="#FFFFFF" fill-rule="nonzero"></path>
            <path d="M323.722133,228 L369.974895,267.188192 L343.722133,267.188192 C332.676438,267.188192 323.722133,258.233887 323.722133,247.188192 L323.722133,228 L323.722133,228 Z" id="Path" fill="#E0E0E0" fill-rule="nonzero" opacity="0.9"></path>
            <g id=".MD" transform="translate(259.626145, 331.265347)" fill="#10B981" fill-rule="nonzero">
                <path d="M4.15503574,33.190696 C3.00446756,33.190696 2.02169057,32.7858665 1.20670477,31.9762074 C0.391718979,31.1665483 -0.0104472141,30.1864347 0.000206195015,29.0358665 C-0.0104472141,27.9066051 0.391718979,26.9398082 1.20670477,26.1354759 C2.02169057,25.3311435 3.00446756,24.9289773 4.15503574,24.9289773 C5.24168347,24.9289773 6.20315364,25.3311435 7.03944625,26.1354759 C7.87573887,26.9398082 8.29921188,27.9066051 8.30986529,29.0358665 C8.29921188,29.8029119 8.09946046,30.5007102 7.71061102,31.1292614 C7.32176159,31.7578125 6.81572466,32.2585227 6.19250023,32.631392 C5.5692758,33.0042614 4.89012097,33.190696 4.15503574,33.190696 Z" id="Path"></path>
                <polygon id="Path" points="13.4874221 0 23.2832318 0 31.5928909 20.2627841 31.9764136 20.2627841 40.2860727 0 50.0818823 0 50.0818823 32.7272727 42.3794676 32.7272727 42.3794676 12.6242898 42.1078056 12.6242898 34.2455897 32.5195312 29.3237147 32.5195312 21.4614988 12.512429 21.1898369 12.512429 21.1898369 32.7272727 13.4874221 32.7272727"></polygon>
                <path d="M67.1326636,32.7272727 L55.0357176,32.7272727 L55.0357176,0 L67.1166835,0 C70.4512005,0 73.3249576,0.652521307 75.7379548,1.95756392 C78.1509519,3.26260653 80.0126352,5.13760653 81.3230045,7.58256392 C82.6333738,10.0275213 83.2885585,12.9492188 83.2885585,16.3476562 C83.2885585,19.7567472 82.6360372,22.6864347 81.3309945,25.1367188 C80.0259519,27.5870028 78.1642687,29.4646662 75.7459448,30.7697088 C73.327621,32.0747514 70.4565272,32.7272727 67.1326636,32.7272727 Z M62.9458738,25.9836648 L66.8290414,25.9836648 C68.6614278,25.9836648 70.2141622,25.6720526 71.4872445,25.0488281 C72.7603269,24.4256037 73.7244605,23.4082031 74.3796451,21.9966264 C75.0348298,20.5850497 75.3624221,18.7020597 75.3624221,16.3476562 C75.3624221,13.9932528 75.0321664,12.1155895 74.3716551,10.7146662 C73.7111437,9.3137429 72.7390201,8.30166903 71.4552843,7.6784446 C70.1715485,7.05522017 68.5921806,6.74360795 66.7171806,6.74360795 L62.9458738,6.74360795 L62.9458738,25.9836648 Z" id="Shape"></path>
            </g>
            <path d="M177.349852,177.349852 C182.733079,171.966625 191.409558,171.883806 196.894116,177.101396 L197.148842,177.349852 L270.148842,250.349852 C275.616182,255.817192 275.616182,264.681502 270.148842,270.148842 C264.765615,275.532069 256.089136,275.614888 250.604578,270.397299 L250.349852,270.148842 L177.349852,197.148842 C171.882512,191.681502 171.882512,182.817192 177.349852,177.349852 Z" id="Path" fill="#161B27" fill-rule="nonzero"></path>
            <path d="M260.249347,190.249347 C267.876847,190.249347 274.079674,196.3491 274.245925,203.936702 L274.249347,204.249347 L274.249347,260.249347 C274.249347,267.981334 267.981334,274.249347 260.249347,274.249347 C252.621847,274.249347 246.41902,268.149595 246.252769,260.561992 L246.249347,260.249347 L246.249347,204.249347 C246.249347,196.517361 252.517361,190.249347 260.249347,190.249347 Z" id="Path" fill="#161B27" fill-rule="nonzero"></path>
            <path d="M260.249347,246.249347 C267.981334,246.249347 274.249347,252.517361 274.249347,260.249347 C274.249347,267.876847 268.149595,274.079674 260.561992,274.245925 L260.249347,274.249347 L204.249347,274.249347 C196.517361,274.249347 190.249347,267.981334 190.249347,260.249347 C190.249347,252.621847 196.3491,246.41902 203.936702,246.252769 L204.249347,246.249347 L260.249347,246.249347 Z" id="Path" fill="#161B27" fill-rule="nonzero"></path>
            <path d="M180.531833,180.531833 C184.171814,176.891852 190.030718,176.823173 193.754432,180.325796 L193.966862,180.531833 L266.966862,253.531833 C270.676842,257.241814 270.676842,263.256881 266.966862,266.966862 C263.326881,270.606843 257.467977,270.675522 253.744263,267.172898 L253.531833,266.966862 L180.531833,193.966862 C176.821852,190.256881 176.821852,184.241814 180.531833,180.531833 Z" id="Path" fill="#10B981" fill-rule="nonzero"></path>
            <path d="M260.249347,194.749347 C265.405592,194.749347 269.602387,198.857241 269.745571,203.978869 L269.749347,204.249347 L269.749347,260.249347 C269.749347,265.496052 265.496052,269.749347 260.249347,269.749347 C255.093103,269.749347 250.896308,265.641453 250.753124,260.519826 L250.749347,260.249347 L250.749347,204.249347 C250.749347,199.002642 255.002642,194.749347 260.249347,194.749347 Z" id="Path" fill="#10B981" fill-rule="nonzero"></path>
            <path d="M260.249347,250.749347 C265.496052,250.749347 269.749347,255.002642 269.749347,260.249347 C269.749347,265.405592 265.641453,269.602387 260.519826,269.745571 L260.249347,269.749347 L204.249347,269.749347 C199.002642,269.749347 194.749347,265.496052 194.749347,260.249347 C194.749347,255.093103 198.857241,250.896308 203.978869,250.753124 L204.249347,250.749347 L260.249347,250.749347 Z" id="Path" fill="#10B981" fill-rule="nonzero"></path>
        </g>
    </g>
</svg>
