<?xml version="1.0" encoding="UTF-8"?>
<svg width="1024px" height="1024px" viewBox="0 0 1024 1024" version="1.1" xmlns="http&#58;//www.w3.org/2000/svg" xmlns:xlink="http&#58;//www.w3.org/1999/xlink">
    <title>Group 6</title>
    <g id="Page-1" stroke="none" stroke-width="1" fill="none" fill-rule="evenodd">
        <g id="Group-6">
            <path d="M256.38852,0 L767.61148,1.45093462e-14 C856.763354,-8.430348e-15 889.091978,9.28256112 921.68457,26.7132704 C954.277163,44.1439796 979.85602,69.7228371 997.28673,102.31543 C1014.71744,134.908022 1024,167.236646 1024,256.38852 L1024,767.61148 C1024,856.763354 1014.71744,889.091978 997.28673,921.68457 C979.85602,954.277163 954.277163,979.85602 921.68457,997.28673 C889.091978,1014.71744 856.763354,1024 767.61148,1024 L256.38852,1024 C167.236646,1024 134.908022,1014.71744 102.31543,997.28673 C69.7228371,979.85602 44.1439796,954.277163 26.7132704,921.68457 C9.28256112,889.091978 0,856.763354 0,767.61148 L0,256.38852 C0,167.236646 9.28256112,134.908022 26.7132704,102.31543 C44.1439796,69.7228371 69.7228371,44.1439796 102.31543,26.7132704 C134.908022,9.28256112 167.236646,0 256.38852,0 Z" id="Rectangle" fill="#0284C7" fill-rule="nonzero"></path>
            <path d="M583.425385,151.238031 L789.890377,341.5754 C800.158794,351.04172 806,364.371281 806,378.337369 L806,902 C806,929.614237 783.614237,952 756,952 L189,952 C161.385763,952.007618 139,929.621856 139,902.007618 C139,902.005079 139,902.002539 139.007619,902.000001 L139.116416,187.999999 C139.128243,160.388739 161.512773,138.007619 189.124035,138 L549.535008,138 C562.093413,138 574.191951,142.72585 583.425385,151.238031 Z" id="Path" stroke="#0284C7" stroke-width="20" fill="#FFFFFF" fill-rule="nonzero"></path>
            <path d="M635.425385,92.2380312 L841.890377,282.5754 C852.158794,292.04172 858,305.371281 858,319.337369 L858,843 C858,870.614237 835.614237,893 808,893 L241,893 C213.385763,893.007618 191,870.621856 191,843.007618 C191,843.005079 191,843.002539 191.007619,843.000001 L191.116416,128.999999 C191.128243,101.388739 213.512773,79.0076195 241.124035,79 L601.535008,79 C614.093413,79 626.191951,83.7258496 635.425385,92.2380312 Z" id="Path" stroke="#0284C7" stroke-width="20" fill="#FFFFFF" fill-rule="nonzero"></path>
            <path d="M621,79 L621,246 C621,273.614237 643.385763,296 671,296 L857,296 L857,296" id="Path-5" stroke="#0284C7" stroke-width="20" fill="#FFFFFF"></path>
            <g id="AI" transform="translate(266.256012, 145.000000)" fill="#0284C7" fill-rule="nonzero">
                <path d="M97.9509431,0 C100.096366,3.55271368e-15 102.002662,1.36869056 102.688545,3.40152213 L153.298896,153.401522 C154.181711,156.018027 152.776278,158.854787 150.159773,159.737602 C149.644751,159.911371 149.104841,160 148.561295,160 L117.633544,160 C115.449088,160 113.5175,158.581903 112.863143,156.497756 L103.415,126.406 L48.159,126.406 L38.7328101,156.494921 C38.0793642,158.580503 36.1470729,160 33.9615199,160 L3.03605655,160 C0.274632797,160 -1.96394345,157.761424 -1.96394345,155 C-1.96394345,154.456453 -1.87531445,153.916544 -1.70154501,153.401522 L48.9088066,3.40152213 C49.5946887,1.36869056 51.5009854,0 53.6464081,0 L97.9509431,0 Z M75.7596131,40.3125 C75.3877274,40.3125 75.0589359,40.5540364 74.9477479,40.9089113 L57.363,97.031 L94.192,97.031 L76.5718326,40.9088001 C76.4604204,40.5539485 76.1315437,40.3125 75.7596131,40.3125 Z" id="Combined-Shape"></path>
                <path d="M211.462738,5 L211.462738,155 C211.462738,157.761424 209.224162,160 206.462738,160 L177.790863,160 C175.029439,160 172.790863,157.761424 172.790863,155 L172.790863,5 C172.790863,2.23857625 175.029439,0 177.790863,0 L206.462738,0 C209.224162,-8.8817842e-16 211.462738,2.23857625 211.462738,5 Z" id="Path"></path>
            </g>
            <path d="M525,390 C538.669048,390 549.775881,400.970143 549.996651,414.586579 L550,415 L550,643 C550,656.807119 538.807119,668 525,668 C511.330952,668 500.224119,657.029857 500.003349,643.413421 L500,643 L500,415 C500,401.192881 511.192881,390 525,390 Z" id="Path-4" fill="#0284C7" fill-rule="nonzero"></path>
            <path d="M733,669 C746.669048,669 757.775881,679.970143 758,693.586579 L758,694 L758,773 C758,799.244571 736.937326,820.569691 710.793768,820.993569 L710,821 L339,821 C312.755429,821 291.430309,799.937326 291.006431,773.793768 L291,773 L291,694 C291,680.192881 302.192881,669 316,669 C329.669048,669 340.775881,679.970143 340.996651,693.586579 L341,694 L341,751 C341,762.045695 349.954305,771 361,771 L688,771 C699.045695,771 708,762.045695 708,751 L708,694 L708,694 C708,680.330952 718.970143,669.224119 732.586579,669.003349 L733,669 Z" id="Path-4" fill="#0284C7" fill-rule="nonzero"></path>
            <path d="M403.236309,574.408772 C412.854522,564.696263 428.464645,564.52346 438.295116,573.947786 L438.591228,574.236309 L541.591228,676.236309 C551.401843,685.951676 551.479058,701.780612 541.763691,711.591228 C532.145478,721.303737 516.535355,721.47654 506.704884,712.052214 L506.408772,711.763691 L403.408772,609.763691 C393.598157,600.048324 393.520942,584.219388 403.236309,574.408772 Z" id="Path-4" fill="#0284C7" fill-rule="nonzero"></path>
            <path d="M609.408772,574.236309 C619.219388,564.520942 635.048324,564.598157 644.763691,574.408772 C654.381904,584.121282 654.402408,599.732347 644.882626,609.470408 L644.591228,609.763691 L541.591228,711.763691 C531.780612,721.479058 515.951676,721.401843 506.236309,711.591228 C496.618096,701.878718 496.597592,686.267653 506.117374,676.529592 L506.408772,676.236309 L609.408772,574.236309 Z" id="Path-4" fill="#0284C7" fill-rule="nonzero"></path>
        </g>
    </g>
</svg>